Coordinates
version=1
nRows=4
nColumns=63
inDegrees=yes

Units are S.I. units (second, meters, Newtons, ...)
If the header above contains a line with 'inDegrees', this indicates whether rotational values are in degrees (yes) or radians (no).

endheader
time	pelvis_tilt	pelvis_list	pelvis_rotation	pelvis_tx	pelvis_ty	pelvis_tz	hip_flexion_r	hip_adduction_r	hip_rotation_r	knee_angle_r	knee_angle_r_beta	ankle_angle_r	subtalar_angle_r	mtp_angle_r	hip_flexion_l	hip_adduction_l	hip_rotation_l	knee_angle_l	knee_angle_l_beta	ankle_angle_l	subtalar_angle_l	mtp_angle_l	L5_S1_Flex_Ext	L5_S1_Lat_Bending	L5_S1_axial_rotation	L4_L5_Flex_Ext	L4_L5_Lat_Bending	L4_L5_axial_rotation	L3_L4_Flex_Ext	L3_L4_Lat_Bending	L3_L4_axial_rotation	L2_L3_Flex_Ext	L2_L3_Lat_Bending	L2_L3_axial_rotation	L1_L2_Flex_Ext	L1_L2_Lat_Bending	L1_L2_axial_rotation	L1_T12_Flex_Ext	L1_T12_Lat_Bending	L1_T12_axial_rotation	Abs_r3	Abs_r2	Abs_r1	Abs_t1	Abs_t2	neck_flexion	neck_bending	neck_rotation	arm_flex_r	arm_add_r	arm_rot_r	elbow_flex_r	pro_sup_r	wrist_flex_r	wrist_dev_r	arm_flex_l	arm_add_l	arm_rot_l	elbow_flex_l	pro_sup_l	wrist_flex_l	wrist_dev_l
      4.25490196	      3.35124410	      4.79462838	    101.10775450	     -0.06492679	      0.95690207	      0.59571041	     -3.27915233	      1.57141710	    -24.95358605	     11.69369745	      0.20409352	     24.27479047	     14.09614518	      0.00000000	     -1.77837755	     -2.65860349	     11.10595415	      7.57119847	      0.13214234	     23.67560146	     -0.45707391	      0.00000000	     -0.56490283	      1.01782780	      5.07510839	     -1.04908104	      1.35371097	      5.39230267	     -0.92807885	      2.47474651	      5.39230267	     -0.64562744	      2.47474651	      4.44071984	     -0.52456876	      2.07555445	      4.12352557	     -0.32278547	      1.57661526	      3.80633130	     -4.03504439	     11.51387163	     28.22623035	      0.00000000	      0.00000000	      4.62396314	     -0.49725007	    -38.15253263	    -18.76196163	    -20.05164594	    -22.55129444	    108.13524665	     41.46272627	     11.52964290	     27.48330226	     39.21542945	     33.94195067	    191.70437449	      0.07231164	      0.77091514	    -69.82817635	    -24.18894114
      4.27450980	      3.84148283	      5.40679118	    100.73393204	     -0.06621509	      0.95906493	      0.59905177	     -3.74949031	      2.09154143	    -24.64334910	     11.41147951	      0.19916789	     23.37389878	     14.19934781	      0.00000000	     -2.06258547	     -3.13738812	     10.77988915	      7.80236889	      0.13617703	     23.40866757	     -0.45610206	      0.00000000	     -0.60605775	      1.13420834	      5.30943798	     -1.12550984	      1.50849709	      5.64127785	     -0.99569227	      2.75771416	      5.64127785	     -0.69266340	      2.75771416	      4.64575823	     -0.56278522	      2.31287764	      4.31391836	     -0.34630140	      1.75688872	      3.98207849	     -4.32900987	     12.83039157	     29.52950122	      0.00000000	      0.00000000	      4.47527960	     -1.34802067	    -39.82575880	    -20.37578748	    -20.73517161	    -23.64561440	    110.59754284	     42.14544026	     13.48427386	     26.28790302	     39.21762508	     35.01362741	    194.89483089	      0.06740100	      0.81623799	    -69.84882222	    -24.36448894
      4.29411765	      3.83505224	      5.70223898	     99.79397809	     -0.06641820	      0.96103843	      0.60193004	     -3.86593264	      1.98233732	    -23.59387094	     11.39895755	      0.19894934	     22.79100809	     13.97315070	      0.00000000	     -2.32232324	     -3.04214780	      9.74885678	      7.79021806	      0.13596495	     22.73477902	     -0.46959848	      0.00000000	     -0.63558507	      1.17747013	      5.65510960	     -1.18034503	      1.56603528	      6.00855395	     -1.04420271	      2.86290088	      6.00855395	     -0.72641017	      2.86290088	      4.94822090	     -0.59020429	      2.40109709	      4.59477655	     -0.36317331	      1.82390123	      4.24133220	     -4.53992057	     13.31977763	     31.45202309	      0.00000000	      0.00000000	      3.94718121	     -2.02722695	    -41.79119949	    -22.79815246	    -20.29798133	    -25.18932520	    112.87699130	     50.88027379	     16.02931481	     21.59544191	     39.12863784	     35.63667782	    197.75949235	      0.06358698	      0.76068572	    -69.86535816	    -24.43101514
      4.31372549	      4.08428549	      5.98853107	     99.33618246	     -0.06717767	      0.96259317	      0.60468471	     -4.03899632	      2.19002100	    -23.26458947	     11.24024641	      0.19617931	     22.25222812	     14.05493394	      0.00000000	     -2.40180376	     -3.22475448	      9.27358485	      7.94826651	      0.13872342	     22.28680507	     -0.53140220	      0.00000000	     -0.65040391	      1.25500254	      5.79380186	     -1.20786511	      1.66915338	      6.15591448	     -1.06854859	      3.05141318	      6.15591448	     -0.74334663	      3.05141318	      5.06957663	     -0.60396507	      2.55920118	      4.70746401	     -0.37164080	      1.94399893	      4.34535140	     -4.64577011	     14.19683973	     32.22338783	      0.00000000	      0.00000000	      3.58538963	     -2.85538194	    -42.64459697	    -25.58100198	    -19.84599057	    -26.12792046	    115.35972219	     61.60602335	     15.81475781	     17.01441539	     38.89422654	     35.88412898	    198.22409617	      0.06185578	      0.70237796	    -69.87666833	    -24.45969498
